<svg width="17" height="14" viewBox="0 0 17 14" fill="none" xmlns="http://www.w3.org/2000/svg">
<path fill-rule="evenodd" clip-rule="evenodd" d="M17 7C17 6.73483 16.8881 6.48052 16.6888 6.29302C16.4896 6.10552 16.2194 6.00018 15.9376 6.00018L3.62887 6.00018L8.19073 1.70895C8.39022 1.52121 8.50229 1.26658 8.50229 1.00108C8.50229 0.735578 8.39022 0.480948 8.19073 0.293209C7.99125 0.10547 7.72069 -1.62245e-06 7.43857 -1.67177e-06C7.15645 -1.7211e-06 6.88589 0.105469 6.6864 0.293209L0.312114 6.29212C0.213178 6.385 0.134684 6.49533 0.081126 6.6168C0.0275676 6.73827 7.06424e-07 6.86848 6.8343e-07 7C6.60436e-07 7.13151 0.0275675 7.26172 0.0811259 7.38319C0.134684 7.50466 0.213177 7.61499 0.312113 7.70787L6.6864 13.7068C6.88589 13.8945 7.15645 14 7.43857 14C7.72068 14 7.99125 13.8945 8.19073 13.7068C8.39022 13.519 8.50229 13.2644 8.50229 12.9989C8.50229 12.7334 8.39022 12.4788 8.19073 12.291L3.62887 7.99982L15.9376 7.99982C16.2194 7.99982 16.4896 7.89448 16.6888 7.70698C16.8881 7.51948 17 7.26517 17 7Z" fill="#040404"/>
</svg>
