<svg width="20" height="24" viewBox="0 0 20 24" fill="none" xmlns="http://www.w3.org/2000/svg">
<path d="M9.88235 0.929688C12.5033 0.929688 15.0169 1.99435 16.8702 3.88945C18.7235 5.78455 19.7647 8.35487 19.7647 11.035C19.7647 14.4865 17.9244 17.3114 15.9853 19.3381C15.0163 20.3395 13.9591 21.2476 12.8273 22.0508L12.3595 22.3764L12.1399 22.5258L11.726 22.7952L11.357 23.0254L10.9002 23.2971C10.59 23.4777 10.2393 23.5726 9.88235 23.5726C9.52544 23.5726 9.17466 23.4777 8.86447 23.2971L8.40769 23.0254L7.83671 22.6661L7.62588 22.5258L7.17569 22.2192C5.95464 21.3741 4.81717 20.4092 3.77945 19.3381C1.84031 17.3092 0 14.4865 0 11.035C0 8.35487 1.04117 5.78455 2.89447 3.88945C4.74777 1.99435 7.26139 0.929688 9.88235 0.929688ZM9.88235 7.66653C9.44976 7.66653 9.02141 7.75366 8.62175 7.92294C8.22209 8.09221 7.85895 8.34033 7.55306 8.65312C7.24717 8.9659 7.00453 9.33724 6.83898 9.74591C6.67344 10.1546 6.58824 10.5926 6.58824 11.035C6.58824 11.4773 6.67344 11.9153 6.83898 12.324C7.00453 12.7327 7.24717 13.104 7.55306 13.4168C7.85895 13.7296 8.22209 13.9777 8.62175 14.147C9.02141 14.3162 9.44976 14.4034 9.88235 14.4034C10.756 14.4034 11.5939 14.0485 12.2116 13.4168C12.8294 12.7851 13.1765 11.9283 13.1765 11.035C13.1765 10.1416 12.8294 9.28482 12.2116 8.65312C11.5939 8.02142 10.756 7.66653 9.88235 7.66653Z" fill="#040404"/>
</svg>
