<svg width="137" height="50" viewBox="0 0 137 50" fill="none" xmlns="http://www.w3.org/2000/svg">
<path d="M5.36754 43.1566C6.03848 43.1566 6.59263 43.2202 7.02998 43.3474C7.46734 43.4747 7.81027 43.6484 8.05876 43.8686C8.30726 44.0888 8.48121 44.3409 8.58061 44.6247C8.68498 44.9037 8.73716 45.1973 8.73716 45.5056C8.73716 45.8139 8.68001 46.11 8.5657 46.3939C8.45139 46.6728 8.26253 46.9224 7.99912 47.1426C7.74069 47.3628 7.39528 47.5366 6.96289 47.6638C6.53547 47.7911 6.00369 47.8547 5.36754 47.8547H0V43.1566H5.36754ZM1.86373 46.3865H5.29299C5.57131 46.3865 5.80738 46.3694 6.00121 46.3351C6.19503 46.296 6.3491 46.2397 6.46341 46.1663C6.58269 46.0929 6.66718 46.0023 6.71688 45.8947C6.77155 45.7821 6.79888 45.6524 6.79888 45.5056C6.79888 45.3588 6.77155 45.2316 6.71688 45.1239C6.66718 45.0113 6.58269 44.9184 6.46341 44.8449C6.3491 44.7715 6.19503 44.7177 6.00121 44.6834C5.80738 44.6443 5.57131 44.6247 5.29299 44.6247H1.86373V46.3865Z" fill="white"/>
<path d="M14.5576 46.5627H16.317C16.2723 46.8465 16.1281 47.0937 15.8846 47.3041C15.6461 47.5146 15.2957 47.6785 14.8335 47.7959C14.3762 47.9085 13.7923 47.9648 13.0816 47.9648C12.3311 47.9648 11.6825 47.9061 11.1358 47.7886C10.5941 47.6712 10.1766 47.473 9.88341 47.194C9.59018 46.9151 9.44357 46.5382 9.44357 46.0635C9.44357 45.5937 9.58521 45.2193 9.8685 44.9404C10.1568 44.6565 10.5717 44.4534 11.1135 44.3311C11.6552 44.2087 12.3112 44.1476 13.0816 44.1476C13.837 44.1476 14.4558 44.2136 14.9378 44.3458C15.4199 44.4779 15.7753 44.6932 16.0039 44.9918C16.2325 45.2854 16.3419 45.6842 16.3319 46.1883H11.2626C11.2874 46.3156 11.357 46.433 11.4713 46.5407C11.5906 46.6483 11.772 46.7364 12.0155 46.8049C12.264 46.8686 12.5945 46.9004 13.007 46.9004C13.4344 46.9004 13.7848 46.871 14.0582 46.8123C14.3365 46.7536 14.503 46.6704 14.5576 46.5627ZM13.007 45.212C12.4802 45.212 12.0776 45.2683 11.7993 45.3808C11.526 45.4934 11.3645 45.6059 11.3148 45.7185H14.5949C14.5601 45.5913 14.421 45.4763 14.1774 45.3735C13.9339 45.2658 13.5438 45.212 13.007 45.212Z" fill="white"/>
<path d="M16.8921 46.5627H18.5396C18.6092 46.6899 18.7409 46.778 18.9347 46.827C19.1335 46.8759 19.4168 46.9004 19.7846 46.9004C20.0679 46.9004 20.2766 46.8857 20.4108 46.8563C20.55 46.827 20.6394 46.7878 20.6792 46.7389C20.7239 46.6899 20.7463 46.6385 20.7463 46.5847C20.7463 46.5015 20.6991 46.4452 20.6046 46.4159C20.5152 46.3816 20.3611 46.362 20.1424 46.3572C19.9237 46.3474 19.6231 46.3425 19.2404 46.3425C18.8776 46.3425 18.552 46.3278 18.2638 46.2984C17.9805 46.2642 17.7395 46.2128 17.5407 46.1443C17.3419 46.0709 17.1903 45.9705 17.0859 45.8433C16.9815 45.7161 16.9294 45.557 16.9294 45.3661C16.9294 45.1312 17.0064 44.9355 17.1605 44.7789C17.3145 44.6174 17.5233 44.4926 17.7867 44.4045C18.0501 44.3115 18.3532 44.2454 18.6962 44.2063C19.0441 44.1671 19.4069 44.1476 19.7846 44.1476C20.4108 44.1476 20.9227 44.2112 21.3203 44.3384C21.7179 44.4608 22.0111 44.6272 22.2 44.8376C22.3888 45.048 22.4808 45.2854 22.4758 45.5497H20.873C20.8183 45.4224 20.714 45.3343 20.5599 45.2854C20.4108 45.2365 20.1524 45.212 19.7846 45.212C19.4367 45.212 19.1832 45.2389 19.0242 45.2927C18.8701 45.3417 18.7931 45.4224 18.7931 45.535C18.7931 45.6084 18.8304 45.6647 18.9049 45.7038C18.9844 45.7381 19.131 45.7625 19.3447 45.7772C19.5634 45.7919 19.8815 45.7993 20.299 45.7993C20.5872 45.7993 20.868 45.809 21.1414 45.8286C21.4197 45.8482 21.6682 45.8898 21.8869 45.9534C22.1105 46.017 22.287 46.1149 22.4162 46.247C22.5454 46.3792 22.61 46.5602 22.61 46.7903C22.61 47.0692 22.4932 47.2968 22.2596 47.473C22.031 47.6442 21.7055 47.769 21.283 47.8473C20.8606 47.9256 20.3611 47.9648 19.7846 47.9648C19.2826 47.9648 18.8577 47.933 18.5098 47.8694C18.1669 47.8057 17.8861 47.7225 17.6674 47.6198C17.4487 47.5121 17.2797 47.3971 17.1605 47.2748C17.0461 47.1475 16.9691 47.0227 16.9294 46.9004C16.8946 46.7731 16.8821 46.6606 16.8921 46.5627Z" fill="white"/>
<path d="M25.173 42.3711V43.4722H23.2794V42.3711H25.173ZM23.3316 44.2577H25.1208V47.8547H23.3316V44.2577Z" fill="white"/>
<path d="M28.9322 47.3482C28.2264 47.3482 27.645 47.2919 27.1877 47.1793C26.7305 47.0619 26.3925 46.8881 26.1739 46.6581C25.9552 46.4232 25.8458 46.1296 25.8458 45.7772C25.8458 45.4493 25.9527 45.1655 26.1664 44.9257C26.3801 44.681 26.7131 44.4901 27.1654 44.3531C27.6226 44.2161 28.2115 44.1476 28.9322 44.1476C29.0763 44.1476 29.2229 44.1476 29.372 44.1476C29.5211 44.1476 29.6677 44.1476 29.8119 44.1476H32.6596V45.0725C32.3366 45.0872 32.0086 45.0725 31.6756 45.0285C31.3476 44.9795 31.0444 44.9159 30.7661 44.8376L30.6841 44.7275C30.9077 44.796 31.1189 44.8841 31.3177 44.9918C31.5215 45.0994 31.6855 45.2291 31.8098 45.3808C31.934 45.5325 31.9961 45.7136 31.9961 45.924C31.9961 46.2275 31.8893 46.4868 31.6756 46.7022C31.4668 46.9126 31.1363 47.0741 30.6841 47.1867C30.2368 47.2943 29.6528 47.3482 28.9322 47.3482ZM30.5201 49.4329V49.2347C30.5201 49.0879 30.453 48.9998 30.3188 48.9705C30.1896 48.946 29.9833 48.9338 29.7 48.9338H27.6201C27.2672 48.9338 26.9815 48.9093 26.7628 48.8604C26.5491 48.8114 26.3851 48.7454 26.2708 48.6622C26.1614 48.579 26.0869 48.486 26.0471 48.3832C26.0123 48.2853 25.9949 48.1875 25.9949 48.0896C25.9949 47.8791 26.0745 47.7152 26.2335 47.5977C26.3925 47.4754 26.6361 47.3898 26.9641 47.3408C27.2921 47.2919 27.7096 47.2674 28.2165 47.2674L28.9322 47.3482C28.5147 47.3482 28.224 47.3702 28.0599 47.4142C27.8959 47.4534 27.8139 47.5341 27.8139 47.6565C27.8139 47.725 27.8462 47.7764 27.9108 47.8106C27.9755 47.84 28.0624 47.8547 28.1718 47.8547H30.371C30.863 47.8547 31.2507 47.8889 31.5339 47.9574C31.8172 48.0309 32.016 48.1508 32.1303 48.3171C32.2496 48.4884 32.3092 48.7209 32.3092 49.0145V49.4329H30.5201ZM28.9322 46.3865C29.2602 46.3865 29.5236 46.362 29.7224 46.3131C29.9262 46.2593 30.0728 46.1883 30.1622 46.1002C30.2517 46.0121 30.2964 45.9143 30.2964 45.8066C30.2964 45.6842 30.2517 45.579 30.1622 45.4909C30.0728 45.4028 29.9286 45.3343 29.7298 45.2854C29.5311 45.2365 29.2652 45.212 28.9322 45.212C28.6042 45.212 28.3383 45.2365 28.1345 45.2854C27.9307 45.3343 27.7816 45.4028 27.6872 45.4909C27.5928 45.579 27.5456 45.6842 27.5456 45.8066C27.5456 45.9143 27.5903 46.0121 27.6797 46.1002C27.7742 46.1883 27.9233 46.2593 28.127 46.3131C28.3308 46.362 28.5992 46.3865 28.9322 46.3865Z" fill="white"/>
<path d="M33.1423 44.2577H34.9315V47.8547H33.1423V44.2577ZM37.6153 44.1476C37.9085 44.1476 38.1918 44.1794 38.4651 44.243C38.7385 44.3017 38.982 44.4045 39.1957 44.5513C39.4144 44.6981 39.5884 44.8988 39.7176 45.1533C39.8468 45.4077 39.9114 45.7283 39.9114 46.1149V47.8547H38.1222V46.3351C38.1222 45.9681 38.0253 45.7087 37.8315 45.557C37.6376 45.4004 37.2873 45.3221 36.7803 45.3221C36.512 45.3221 36.251 45.3515 35.9976 45.4102C35.7491 45.4689 35.5254 45.5399 35.3266 45.6231C35.1278 45.7014 34.9713 45.7797 34.857 45.858L34.8421 45.579C34.8619 45.4909 34.929 45.3686 35.0433 45.212C35.1626 45.0505 35.3341 44.889 35.5577 44.7275C35.7814 44.566 36.0622 44.429 36.4001 44.3164C36.7431 44.2038 37.1481 44.1476 37.6153 44.1476Z" fill="white"/>
<path d="M44.2995 47.1426V46.0415H49.3986V47.1426H44.2995ZM42.6296 47.8547L45.8277 43.1566H47.9002L51.1282 47.8547H49.0781L46.3123 43.6484H47.4231L44.6797 47.8547H42.6296Z" fill="white"/>
<path d="M51.5394 44.2577H53.3286V47.8547H51.5394V44.2577ZM56.0123 44.1476C56.3055 44.1476 56.5888 44.1794 56.8622 44.243C57.1355 44.3017 57.3791 44.4045 57.5928 44.5513C57.8114 44.6981 57.9854 44.8988 58.1146 45.1533C58.2438 45.4077 58.3084 45.7283 58.3084 46.1149V47.8547H56.5193V46.3351C56.5193 45.9681 56.4223 45.7087 56.2285 45.557C56.0347 45.4004 55.6843 45.3221 55.1774 45.3221C54.909 45.3221 54.6481 45.3515 54.3946 45.4102C54.1461 45.4689 53.9225 45.5399 53.7237 45.6231C53.5249 45.7014 53.3683 45.7797 53.254 45.858L53.2391 45.579C53.259 45.4909 53.3261 45.3686 53.4404 45.212C53.5597 45.0505 53.7311 44.889 53.9548 44.7275C54.1784 44.566 54.4592 44.429 54.7972 44.3164C55.1401 44.2038 55.5451 44.1476 56.0123 44.1476Z" fill="white"/>
<path d="M61.6859 47.9574C61.1491 47.9574 60.672 47.884 60.2545 47.7372C59.837 47.5855 59.5065 47.3677 59.263 47.0839C59.0245 46.8 58.9052 46.4575 58.9052 46.0562C58.9052 45.6353 59.0245 45.2829 59.263 44.9991C59.5065 44.7153 59.837 44.5024 60.2545 44.3605C60.672 44.2185 61.1491 44.1476 61.6859 44.1476C62.1332 44.1476 62.5357 44.1941 62.8936 44.287C63.2514 44.3751 63.557 44.5048 63.8105 44.6761C64.064 44.8425 64.2578 45.0431 64.392 45.2781C64.5262 45.513 64.5933 45.7723 64.5933 46.0562C64.5933 46.34 64.5262 46.5994 64.392 46.8343C64.2578 47.0643 64.064 47.265 63.8105 47.4363C63.557 47.6026 63.2514 47.7323 62.8936 47.8253C62.5357 47.9134 62.1332 47.9574 61.6859 47.9574ZM62.3568 46.8416C62.7345 46.8416 63.0799 46.8196 63.393 46.7756C63.7111 46.7266 63.9646 46.6459 64.1534 46.5333C64.3473 46.4208 64.4442 46.2617 64.4442 46.0562C64.4442 45.8457 64.3473 45.6842 64.1534 45.5717C63.9646 45.4591 63.7111 45.3808 63.393 45.3368C63.0799 45.2927 62.7345 45.2707 62.3568 45.2707C61.8499 45.2707 61.4572 45.3368 61.1789 45.4689C60.9006 45.5962 60.7615 45.7919 60.7615 46.0562C60.7615 46.2275 60.8236 46.3718 60.9478 46.4893C61.0721 46.6067 61.2535 46.6948 61.492 46.7536C61.7306 46.8123 62.0188 46.8416 62.3568 46.8416ZM64.4442 42.7895H66.2334V47.8547H64.5486C64.5287 47.7421 64.5063 47.561 64.4815 47.3115C64.4566 47.057 64.4442 46.7731 64.4442 46.4599V42.7895Z" fill="white"/>
<path d="M69.6569 47.8547V43.1566H75.4195C75.8718 43.1566 76.2768 43.2079 76.6347 43.3107C76.9975 43.4086 77.2832 43.575 77.492 43.8099C77.7057 44.0448 77.8125 44.3653 77.8125 44.7715C77.8125 45.0407 77.7628 45.2634 77.6634 45.4396C77.564 45.6157 77.4274 45.7528 77.2534 45.8506C77.0795 45.9485 76.8807 46.0195 76.657 46.0635C76.4334 46.1076 76.1998 46.1345 75.9563 46.1443L75.412 46.0415C76.0035 46.0464 76.4582 46.0709 76.7763 46.1149C77.0993 46.159 77.323 46.2397 77.4472 46.3572C77.5765 46.4697 77.6411 46.6337 77.6411 46.849V47.8547H75.7773V47.0692C75.7773 46.9224 75.7475 46.8123 75.6879 46.7389C75.6332 46.6606 75.509 46.6067 75.3151 46.5774C75.1263 46.548 74.8331 46.5333 74.4355 46.5333H71.5206V47.8547H69.6569ZM71.5206 45.3074H75.4195C75.5686 45.3074 75.6928 45.2829 75.7922 45.234C75.8966 45.1851 75.9488 45.0921 75.9488 44.9551C75.9488 44.8278 75.8966 44.7422 75.7922 44.6981C75.6928 44.6492 75.5686 44.6247 75.4195 44.6247H71.5206V45.3074Z" fill="white"/>
<path d="M83.6248 46.5627H85.3842C85.3394 46.8465 85.1953 47.0937 84.9518 47.3041C84.7132 47.5146 84.3628 47.6785 83.9006 47.7959C83.4434 47.9085 82.8594 47.9648 82.1487 47.9648C81.3983 47.9648 80.7497 47.9061 80.203 47.7886C79.6613 47.6712 79.2438 47.473 78.9506 47.194C78.6573 46.9151 78.5107 46.5382 78.5107 46.0635C78.5107 45.5937 78.6524 45.2193 78.9357 44.9404C79.2239 44.6565 79.6389 44.4534 80.1806 44.3311C80.7224 44.2087 81.3784 44.1476 82.1487 44.1476C82.9042 44.1476 83.5229 44.2136 84.005 44.3458C84.4871 44.4779 84.8424 44.6932 85.0711 44.9918C85.2997 45.2854 85.409 45.6842 85.3991 46.1883H80.3297C80.3546 46.3156 80.4242 46.433 80.5385 46.5407C80.6577 46.6483 80.8391 46.7364 81.0827 46.8049C81.3312 46.8686 81.6617 46.9004 82.0742 46.9004C82.5016 46.9004 82.852 46.871 83.1253 46.8123C83.4036 46.7536 83.5701 46.6704 83.6248 46.5627ZM82.0742 45.212C81.5474 45.212 81.1448 45.2683 80.8665 45.3808C80.5931 45.4934 80.4316 45.6059 80.3819 45.7185H83.6621C83.6273 45.5913 83.4881 45.4763 83.2446 45.3735C83.0011 45.2658 82.6109 45.212 82.0742 45.212Z" fill="white"/>
<path d="M85.9965 44.2577H87.7857V47.8547H85.9965V44.2577ZM90.4695 44.1476C90.7627 44.1476 91.046 44.1794 91.3193 44.243C91.5927 44.3017 91.8362 44.4045 92.0499 44.5513C92.2686 44.6981 92.4425 44.8988 92.5717 45.1533C92.701 45.4077 92.7656 45.7283 92.7656 46.1149V47.8547H90.9764V46.3351C90.9764 45.9681 90.8795 45.7087 90.6857 45.557C90.4918 45.4004 90.1414 45.3221 89.6345 45.3221C89.3661 45.3221 89.1052 45.3515 88.8517 45.4102C88.6032 45.4689 88.3796 45.5399 88.1808 45.6231C87.982 45.7014 87.8254 45.7797 87.7111 45.858L87.6962 45.579C87.7161 45.4909 87.7832 45.3686 87.8975 45.212C88.0168 45.0505 88.1883 44.889 88.4119 44.7275C88.6356 44.566 88.9164 44.429 89.2543 44.3164C89.5972 44.2038 90.0023 44.1476 90.4695 44.1476Z" fill="white"/>
<path d="M96.9034 47.9648C96.1132 47.9648 95.4547 47.9012 94.9278 47.7739C94.406 47.6467 94.0134 47.4436 93.75 47.1646C93.4915 46.8857 93.3623 46.5186 93.3623 46.0635C93.3623 45.6084 93.4915 45.2413 93.75 44.9624C94.0134 44.6786 94.406 44.473 94.9278 44.3458C95.4547 44.2136 96.1132 44.1476 96.9034 44.1476C97.6886 44.1476 98.3397 44.2136 98.8566 44.3458C99.3784 44.473 99.7686 44.6786 100.027 44.9624C100.285 45.2413 100.415 45.6084 100.415 46.0635C100.415 46.5186 100.285 46.8857 100.027 47.1646C99.7686 47.4436 99.3784 47.6467 98.8566 47.7739C98.3397 47.9012 97.6886 47.9648 96.9034 47.9648ZM96.9034 46.9004C97.2712 46.9004 97.5793 46.871 97.8278 46.8123C98.0763 46.7487 98.2652 46.6557 98.3944 46.5333C98.5236 46.4061 98.5882 46.2495 98.5882 46.0635C98.5882 45.8776 98.5236 45.7209 98.3944 45.5937C98.2701 45.4665 98.0838 45.371 97.8353 45.3074C97.5868 45.2438 97.2761 45.212 96.9034 45.212C96.5356 45.212 96.2225 45.2438 95.9641 45.3074C95.7106 45.371 95.5168 45.4665 95.3826 45.5937C95.2534 45.7161 95.1888 45.8727 95.1888 46.0635C95.1888 46.2495 95.2534 46.4061 95.3826 46.5333C95.5118 46.6557 95.7032 46.7487 95.9566 46.8123C96.2151 46.871 96.5306 46.9004 96.9034 46.9004Z" fill="white"/>
<path d="M104.256 47.194L103.407 47.1793L105.285 44.2577H107.261L104.659 47.8547H102.974L100.492 44.2577H102.46L104.256 47.194Z" fill="white"/>
<path d="M110.041 47.9574C109.504 47.9574 109.027 47.884 108.61 47.7372C108.192 47.5855 107.862 47.3677 107.618 47.0839C107.379 46.8 107.26 46.4575 107.26 46.0562C107.26 45.6353 107.379 45.2829 107.618 44.9991C107.862 44.7153 108.192 44.5024 108.61 44.3605C109.027 44.2185 109.504 44.1476 110.041 44.1476C110.637 44.1476 111.152 44.2283 111.584 44.3898C112.021 44.5464 112.357 44.7691 112.59 45.0578C112.829 45.3417 112.948 45.6745 112.948 46.0562C112.948 46.34 112.881 46.5994 112.747 46.8343C112.613 47.0643 112.419 47.265 112.166 47.4363C111.912 47.6026 111.606 47.7323 111.249 47.8253C110.891 47.9134 110.488 47.9574 110.041 47.9574ZM110.712 46.8416C111.09 46.8416 111.435 46.8196 111.748 46.7756C112.066 46.7266 112.32 46.6459 112.508 46.5333C112.702 46.4208 112.799 46.2617 112.799 46.0562C112.799 45.8457 112.702 45.6842 112.508 45.5717C112.32 45.4591 112.066 45.3808 111.748 45.3368C111.435 45.2927 111.09 45.2707 110.712 45.2707C110.205 45.2707 109.812 45.3368 109.534 45.4689C109.256 45.5962 109.116 45.7919 109.116 46.0562C109.116 46.2275 109.179 46.3718 109.303 46.4893C109.427 46.6067 109.608 46.6948 109.847 46.7536C110.086 46.8123 110.374 46.8416 110.712 46.8416ZM112.799 44.2577H114.588V47.8547H112.904C112.904 47.8547 112.894 47.7984 112.874 47.6858C112.859 47.5733 112.841 47.4118 112.822 47.2013C112.807 46.9909 112.799 46.7438 112.799 46.4599V44.2577Z" fill="white"/>
<path d="M115.076 44.2577H119.46V45.3588H115.076V44.2577ZM116.374 43.1566H118.163V47.8547H116.374V43.1566Z" fill="white"/>
<path d="M121.912 42.3711V43.4722H120.019V42.3711H121.912ZM120.071 44.2577H121.86V47.8547H120.071V44.2577Z" fill="white"/>
<path d="M126.126 47.9648C125.336 47.9648 124.677 47.9012 124.151 47.7739C123.629 47.6467 123.236 47.4436 122.973 47.1646C122.714 46.8857 122.585 46.5186 122.585 46.0635C122.585 45.6084 122.714 45.2413 122.973 44.9624C123.236 44.6786 123.629 44.473 124.151 44.3458C124.677 44.2136 125.336 44.1476 126.126 44.1476C126.911 44.1476 127.562 44.2136 128.079 44.3458C128.601 44.473 128.991 44.6786 129.25 44.9624C129.508 45.2413 129.637 45.6084 129.637 46.0635C129.637 46.5186 129.508 46.8857 129.25 47.1646C128.991 47.4436 128.601 47.6467 128.079 47.7739C127.562 47.9012 126.911 47.9648 126.126 47.9648ZM126.126 46.9004C126.494 46.9004 126.802 46.871 127.05 46.8123C127.299 46.7487 127.488 46.6557 127.617 46.5333C127.746 46.4061 127.811 46.2495 127.811 46.0635C127.811 45.8776 127.746 45.7209 127.617 45.5937C127.493 45.4665 127.306 45.371 127.058 45.3074C126.809 45.2438 126.499 45.212 126.126 45.212C125.758 45.212 125.445 45.2438 125.187 45.3074C124.933 45.371 124.739 45.4665 124.605 45.5937C124.476 45.7161 124.411 45.8727 124.411 46.0635C124.411 46.2495 124.476 46.4061 124.605 46.5333C124.734 46.6557 124.926 46.7487 125.179 46.8123C125.438 46.871 125.753 46.9004 126.126 46.9004Z" fill="white"/>
<path d="M130.231 44.2577H132.02V47.8547H130.231V44.2577ZM134.704 44.1476C134.997 44.1476 135.28 44.1794 135.554 44.243C135.827 44.3017 136.071 44.4045 136.284 44.5513C136.503 44.6981 136.677 44.8988 136.806 45.1533C136.935 45.4077 137 45.7283 137 46.1149V47.8547H135.211V46.3351C135.211 45.9681 135.114 45.7087 134.92 45.557C134.726 45.4004 134.376 45.3221 133.869 45.3221C133.601 45.3221 133.34 45.3515 133.086 45.4102C132.838 45.4689 132.614 45.5399 132.415 45.6231C132.216 45.7014 132.06 45.7797 131.946 45.858L131.931 45.579C131.951 45.4909 132.018 45.3686 132.132 45.212C132.251 45.0505 132.423 44.889 132.646 44.7275C132.87 44.566 133.151 44.429 133.489 44.3164C133.832 44.2038 134.237 44.1476 134.704 44.1476Z" fill="white"/>
<path d="M64.8974 0.923643C63.5138 1.4079 62.3377 1.82297 62.3147 1.82297C62.1533 1.82297 62.2686 2.97595 62.43 2.97595C62.5222 2.97595 63.8136 2.58394 65.2663 2.07663L67.9182 1.20036L70.3164 2.07663C71.6538 2.56088 72.876 2.95289 73.0374 2.95289C73.1758 2.97595 73.3141 2.7223 73.3141 2.42252C73.3141 1.82297 73.4064 1.86909 69.8782 0.646927C68.7944 0.277973 67.8029 -0.0218027 67.6876 0.00125694C67.5492 0.00125694 66.304 0.416331 64.8974 0.923643Z" fill="white"/>
<path d="M65.0821 3.29883C62.3841 4.1751 62.2457 4.26734 62.2457 4.84383V5.4895L65.0129 4.54406L67.78 3.62167L70.5472 4.54406L73.3144 5.4895V4.86689C73.3144 4.2904 73.1529 4.19816 70.5933 3.29883L67.8953 2.35339L65.0821 3.29883Z" fill="white"/>
<path d="M64.8975 5.72018C62.5685 6.5042 62.361 6.64256 62.2918 7.19599C62.2457 7.54189 62.2457 7.8186 62.2918 7.8186C62.3379 7.8186 63.6062 7.40353 65.1051 6.89622L67.803 5.99689L70.3857 6.89622C71.8154 7.40353 73.0376 7.8186 73.1529 7.8186C73.4988 7.8186 73.2912 6.71174 72.9223 6.55032C71.8615 6.11219 67.8953 4.82085 67.6878 4.84391C67.5494 4.84391 66.3042 5.23592 64.8975 5.72018Z" fill="white"/>
<path d="M77.5802 7.24222C74.9975 8.14155 74.813 8.25685 74.7439 8.8564C74.6747 9.31759 74.7439 9.45595 74.9745 9.38677C75.1359 9.31759 76.4503 8.87946 77.88 8.41826L80.4857 7.542L83.1145 8.48744C84.5673 8.99476 85.7664 9.40983 85.7894 9.36371C85.9047 8.99476 85.9278 8.53356 85.7894 8.34909C85.7203 8.21073 84.452 7.70341 82.9992 7.1961L80.3474 6.27372L77.5802 7.24222Z" fill="white"/>
<path d="M64.9668 8.09537C62.3841 8.99469 62.2457 9.08693 62.2457 9.68648V10.3322L65.059 9.38671L67.8723 8.44126L70.1782 9.27141C71.4696 9.70954 72.6918 10.1477 72.9223 10.2399C73.2452 10.3783 73.3144 10.286 73.3144 9.7326C73.3144 9.08693 73.2221 9.04081 70.7317 8.16455C69.302 7.68029 68.0337 7.26522 67.8953 7.2191C67.78 7.19604 66.4426 7.58805 64.9668 8.09537Z" fill="white"/>
<path d="M77.4192 9.7094C74.9518 10.5395 74.6981 10.6779 74.6981 11.1852C74.6981 11.485 74.7904 11.7386 74.8826 11.7386C74.9748 11.7386 76.2662 11.3236 77.742 10.8393L80.44 9.93999L82.9996 10.8393C84.4062 11.3236 85.6515 11.7386 85.7668 11.7386C86.0435 11.7386 85.9282 10.8854 85.6284 10.6087C85.3517 10.3781 80.7397 8.74089 80.3939 8.76395C80.2324 8.76395 78.895 9.20209 77.4192 9.7094Z" fill="white"/>
<path d="M64.8975 10.5626C62.5685 11.3466 62.361 11.485 62.2918 12.0384C62.2457 12.3843 62.2457 12.661 62.2918 12.661C62.3379 12.661 63.6062 12.2459 65.1051 11.7386L67.8261 10.8393L70.478 11.7386C71.9307 12.2459 73.1759 12.661 73.2451 12.661C73.2912 12.661 73.3143 12.3843 73.2682 12.0615C73.199 11.508 72.9454 11.3466 70.7777 10.5626C69.4403 10.0783 68.1489 9.68632 67.8953 9.68632C67.6416 9.68632 66.3042 10.0783 64.8975 10.5626Z" fill="white"/>
<path d="M77.5345 12.0386C74.7904 12.961 74.6981 13.0071 74.6981 13.6528C74.6981 14.0909 74.7904 14.2984 74.9979 14.2292C75.1363 14.1601 76.4045 13.7219 77.7881 13.2377L80.3247 12.3384L82.9074 13.2377C84.3371 13.7219 85.5823 14.1139 85.6976 14.0909C85.7898 14.0678 85.8821 13.8142 85.8821 13.5375C85.8821 13.0763 85.5592 12.8918 83.1149 12.0386C81.593 11.5082 80.3477 11.0701 80.3477 11.0701C80.3477 11.0701 79.0795 11.5082 77.5345 12.0386Z" fill="white"/>
<path d="M52.4454 12.5227C49.8166 13.422 49.6783 13.5143 49.6091 14.1369C49.5399 14.6212 49.6091 14.7595 49.8397 14.6903C50.0011 14.6212 51.2924 14.183 52.6991 13.7218L55.2587 12.8456L57.9567 13.791L60.6316 14.7365V14.0908C60.6316 13.4912 60.4932 13.422 57.9336 12.5227L55.2126 11.5773L52.4454 12.5227Z" fill="white"/>
<path d="M64.9668 12.938C62.3841 13.8143 62.2457 13.8834 62.2457 14.483V15.1287L65.0359 14.1832L67.8262 13.2378L70.2705 14.114C71.631 14.5752 72.8762 14.9672 73.0376 14.9672C73.176 14.9672 73.3144 14.7136 73.3144 14.4138C73.3144 13.9296 73.0376 13.7681 70.5472 12.9149C69.0253 12.4076 67.757 11.9695 67.7109 11.9925C67.6878 11.9925 66.4426 12.4307 64.9668 12.938Z" fill="white"/>
<path d="M77.3499 14.5057C75.0439 15.2897 74.8134 15.4281 74.7442 15.9815C74.6981 16.3043 74.7672 16.5811 74.8595 16.5811C74.9748 16.5811 76.2892 16.166 77.765 15.6817L80.463 14.7593L83.0456 15.6817C84.4523 16.166 85.6975 16.5811 85.8128 16.5811C86.0434 16.5811 85.9281 15.7048 85.6283 15.4511C85.3055 15.1283 80.8089 13.5833 80.3246 13.6064C80.071 13.6064 78.7566 14.0214 77.3499 14.5057Z" fill="white"/>
<path d="M52.2839 15.0134C49.8165 15.8435 49.5629 15.9819 49.5629 16.4892C49.5629 16.7889 49.6551 17.0426 49.7473 17.0426C49.8396 17.0426 51.1309 16.6275 52.6067 16.1433L55.2817 15.2439L57.7952 16.1433C59.1557 16.6275 60.3778 17.0426 60.4701 17.0426C60.5854 17.0426 60.6315 16.7659 60.5854 16.4431C60.5162 15.8896 60.2625 15.7513 58.0027 14.9442C56.6191 14.4369 55.3739 14.0448 55.2355 14.0679C55.0972 14.0679 53.7597 14.506 52.2839 15.0134Z" fill="white"/>
<path d="M64.8515 15.3822C62.338 16.2123 62.2457 16.2584 62.2457 16.9041C62.2457 17.3192 62.338 17.5267 62.5455 17.4575C62.6839 17.3884 63.9752 16.9502 65.3588 16.489L67.9184 15.6589L70.5011 16.5813C71.9308 17.0886 73.1529 17.5037 73.2221 17.5037C73.2913 17.5037 73.3144 17.2269 73.2682 16.8811C73.1991 16.3276 72.9685 16.1893 70.7778 15.4052C69.4403 14.921 68.149 14.529 67.8953 14.529C67.6417 14.529 66.2581 14.921 64.8515 15.3822Z" fill="white"/>
<path d="M77.5345 16.8808C74.7904 17.8032 74.6981 17.8724 74.6981 18.495C74.6981 19.0484 74.7673 19.1407 75.1132 19.0023C76.2892 18.5181 80.1402 17.2729 80.44 17.2729C80.6475 17.2729 81.9158 17.6879 83.2763 18.1722C85.467 18.9562 85.7437 19.0023 85.8359 18.6334C85.9051 18.4258 85.8821 18.1261 85.7898 18.0108C85.6745 17.8263 80.5783 15.8432 80.3939 15.9123C80.3708 15.9123 79.0795 16.3505 77.5345 16.8808Z" fill="white"/>
<path d="M52.3992 17.3422C49.6551 18.2646 49.5629 18.3107 49.5629 18.9564C49.5629 19.3945 49.6551 19.579 49.8626 19.5098C50.001 19.4406 51.3154 19.0025 52.7451 18.5413L55.3278 17.665L57.9796 18.6105L60.6315 19.5559V18.9102C60.6315 18.2876 60.4931 18.2184 58.0488 17.3652C56.6191 16.881 55.397 16.4429 55.3278 16.4198C55.2586 16.4198 53.9442 16.8118 52.3992 17.3422Z" fill="white"/>
<path d="M66.5118 17.2501C65.8892 17.4576 64.667 17.8727 63.8138 18.1725C62.4533 18.6336 62.2457 18.772 62.2457 19.2563C62.2457 19.556 62.338 19.8097 62.4302 19.8097C62.5224 19.8097 63.7907 19.4177 65.2435 18.9334L67.8953 18.0341L70.3166 18.9104C71.6541 19.3946 72.8762 19.7866 73.0376 19.7866C73.176 19.8097 73.3144 19.556 73.3144 19.2563C73.3144 18.772 73.0376 18.6106 70.5933 17.7574C69.0714 17.2501 67.8031 16.8119 67.757 16.835C67.7109 16.835 67.1574 17.0195 66.5118 17.2501Z" fill="white"/>
<path d="M77.3497 19.3253C75.0207 20.1093 74.8131 20.2477 74.744 20.8011C74.6978 21.147 74.7209 21.4237 74.7901 21.4237C74.8362 21.4237 76.1275 21.0086 77.6495 20.5013L80.3936 19.5789L82.7918 20.4091C84.1062 20.8703 85.3283 21.2392 85.5128 21.2623C85.9048 21.3084 86.0893 20.2938 85.6973 20.1554C85.5589 20.1093 84.3829 19.6942 83.1377 19.2561C81.8925 18.7949 80.6472 18.426 80.3705 18.449C80.0938 18.449 78.7563 18.841 77.3497 19.3253Z" fill="white"/>
<path d="M53.8287 19.2562C49.4704 20.8012 49.5627 20.7551 49.5627 21.3316C49.5627 21.6314 49.6318 21.885 49.7471 21.885C49.8394 21.885 51.1307 21.4699 52.6065 20.9626L55.3276 20.0402L57.8872 20.9626C59.2938 21.4699 60.4929 21.885 60.539 21.885C60.6082 21.885 60.6313 21.6083 60.5852 21.2855C60.516 20.732 60.2623 20.5706 58.0947 19.7866C55.3967 18.8181 55.1431 18.772 53.8287 19.2562Z" fill="white"/>
<path d="M65.059 20.1323C62.3149 21.0316 62.2457 21.0777 62.2457 21.7234C62.2457 22.2307 62.338 22.3691 62.6147 22.2538C62.8222 22.1846 64.0674 21.7465 65.3818 21.2853L67.8031 20.4551L70.2705 21.3083C71.631 21.7926 72.8762 22.2307 73.0376 22.2768C73.2221 22.3691 73.3144 22.1615 73.3144 21.7465C73.3144 21.1008 73.1991 21.0316 70.5933 20.1323L67.8723 19.2099L65.059 20.1323Z" fill="white"/>
<path d="M77.4192 21.7006C74.9979 22.5538 74.6981 22.7152 74.6981 23.1995C74.6981 23.4993 74.8365 23.7299 75.021 23.7299C75.2054 23.7299 76.4968 23.3378 77.8804 22.8536L80.44 21.9773L83.0227 22.8767C85.1211 23.6376 85.6284 23.7299 85.7898 23.4762C85.9051 23.2917 85.9512 23.0381 85.9282 22.9228C85.859 22.6922 80.8089 20.7552 80.3477 20.7552C80.2324 20.7552 78.895 21.1933 77.4192 21.7006Z" fill="white"/>
<path d="M52.2839 22.2079C50.785 22.7152 49.5629 23.2225 49.5629 23.3148C49.5629 23.407 49.8396 23.3839 50.1855 23.2456C50.5314 23.1072 51.8688 22.9228 53.1371 22.8075C55.0972 22.623 55.7659 22.6691 57.749 23.0842C60.6546 23.6837 60.4931 23.6607 60.6084 23.3839C60.6776 23.1764 55.7198 21.1933 55.2125 21.2394C55.0972 21.2625 53.7597 21.6775 52.2839 22.2079Z" fill="white"/>
<path d="M64.8974 22.5538C63.0526 23.1764 62.3378 23.5223 62.2916 23.8451C62.1302 24.6292 62.7759 24.6061 65.3355 23.7298L67.9182 22.8766L70.3164 23.7529C71.6539 24.2371 72.876 24.6292 73.0374 24.6292C73.1758 24.6522 73.3142 24.3986 73.3142 24.0988C73.3142 23.6145 73.0374 23.4531 70.6392 22.5999C69.1865 22.0695 67.849 21.6775 67.7107 21.6775C67.5492 21.7006 66.304 22.0926 64.8974 22.5538Z" fill="white"/>
<path d="M77.3496 24.1681C74.9975 24.9752 74.813 25.0674 74.7439 25.69C74.6747 26.1512 74.7439 26.2896 74.9745 26.2204C75.1359 26.1512 76.4272 25.7131 77.8569 25.2519L80.4396 24.3987L83.0914 25.3211C85.7202 26.2434 86.1814 26.2434 85.9047 25.3902C85.7664 24.9752 81.2236 23.2457 80.3474 23.2918C80.0937 23.2918 78.7562 23.6838 77.3496 24.1681Z" fill="white"/>
<path d="M50.854 23.8681C48.6633 24.3985 46.3573 25.6437 44.6509 27.1887C43.7977 27.9727 42.9906 28.849 42.8292 29.1257L42.5756 29.6099L43.129 29.1026C44.0975 28.2264 47.0953 26.7736 48.9861 26.2432C50.5311 25.8282 51.2229 25.759 53.3675 25.8743C56.7572 26.0126 58.4867 26.6122 65.2432 29.9789C68.2179 31.4547 71.6077 32.9767 72.7376 33.3687C79.4249 35.6285 85.9277 35.5132 91.3006 33.0458C92.9378 32.2849 96.0048 30.4401 95.8664 30.2787C95.8203 30.2556 94.7826 30.5784 93.5605 30.9935C90.4474 32.0773 88.0492 32.4924 84.7286 32.4924C79.3788 32.4924 75.2742 31.3625 68.1257 27.8805C62.845 25.3208 60.4007 24.3523 58.0486 23.8681C55.881 23.43 52.6988 23.43 50.854 23.8681Z" fill="#C8D814"/>
<path d="M66.1888 24.606C64.6208 25.1133 64.5055 25.2056 64.8975 25.4823C65.4278 25.8743 66.0735 25.8974 67.042 25.5515C67.6646 25.3439 68.1258 25.4131 70.2473 26.151C71.6309 26.6122 72.8761 27.0503 73.0375 27.1195C73.222 27.1887 73.3142 27.0042 73.3142 26.5661C73.3142 25.9435 73.1989 25.8743 70.6163 24.975L67.8952 24.0295L66.1888 24.606Z" fill="white"/>
<path d="M77.4192 26.543C74.9518 27.3732 74.6981 27.5115 74.6981 28.0188C74.6981 28.3417 74.8365 28.5723 75.021 28.5723C75.1824 28.5723 76.4507 28.1803 77.8342 27.6729L80.3477 26.7967L82.8843 27.6729C84.2909 28.1572 85.5362 28.5492 85.6515 28.5723C85.9974 28.5723 86.0204 27.7191 85.6976 27.4654C85.3747 27.2348 80.6475 25.5745 80.3247 25.5976C80.2094 25.5976 78.895 26.0357 77.4192 26.543Z" fill="white"/>
<path d="M67.6646 26.7966C67.9182 26.935 69.2788 27.6268 70.6623 28.2724C73.0836 29.4254 73.1989 29.4715 73.2681 29.0104C73.3834 28.3647 73.222 28.2724 70.3164 27.3039C67.8029 26.4738 66.8114 26.2663 67.6646 26.7966Z" fill="white"/>
<path d="M47.9486 27.3731C45.804 27.9727 43.4289 29.2871 41.8378 30.786C40.8693 31.6853 40.7309 31.8698 41.3766 31.4086C44.1437 29.4024 46.0808 28.7337 49.2169 28.7337C52.3991 28.7337 54.1978 29.2871 59.9396 32.0081C64.9897 34.4294 67.3418 35.2826 70.4779 35.836C72.5532 36.205 76.0353 36.2742 77.5802 35.9744L78.5026 35.813L76.8885 35.5132C73.1067 34.7753 71.2619 34.0835 64.5515 30.8551C58.0257 27.719 56.2039 27.1656 52.3299 27.0503C50.047 26.9811 49.1246 27.0503 47.9486 27.3731Z" fill="#C8D814"/>
<path d="M77.6493 28.8952C76.1504 29.4025 74.9282 29.9098 74.9282 29.979C74.9282 30.0482 75.2741 30.2096 75.6892 30.348C76.2887 30.5324 76.7961 30.4402 78.4563 29.8868L80.4856 29.218L83.1144 30.1404C84.5672 30.6708 85.8124 31.0167 85.8585 30.9014C85.9277 30.8092 85.9277 30.5324 85.8585 30.2788C85.7663 29.9098 85.0745 29.587 83.0452 28.8721L80.3472 27.9498L77.6493 28.8952Z" fill="white"/>
<path d="M79.3099 30.763C78.7564 30.9474 78.6181 31.1089 78.8487 31.178C79.4252 31.4086 82.446 31.8007 83.3914 31.7776C84.2216 31.7776 84.1754 31.7315 82.5382 31.1089C80.5781 30.3479 80.4167 30.3479 79.3099 30.763Z" fill="white"/>
</svg>
