<svg width="20" height="20" viewBox="0 0 20 20" fill="none" xmlns="http://www.w3.org/2000/svg">
<path d="M19.9169 14.8935V18.4721C19.917 18.7319 20.1038 19.1767 19.9169 19.3668C19.7299 19.5569 19.2461 19.3486 18.9725 19.3668C18.4992 19.3976 18.3271 19.3668 18.0281 19.3668C8.45692 19.3668 0.0850456 11.4355 0.0850456 2.36808C0.0850456 2.08488 0.05147 1.92181 0.0850456 1.47341C0.10424 1.21427 -0.115566 0.755842 0.0850456 0.578739C0.285657 0.401635 0.755207 0.578621 1.02942 0.578739H4.80691C4.94126 0.57861 5.65161 0.493409 5.75129 0.578739C5.85096 0.664069 5.73785 1.34677 5.75129 1.47341C5.72962 1.33078 5.7762 1.70941 5.75129 1.47341C5.96653 2.8965 6.04365 4.64859 6.69566 5.94676C6.79855 6.15197 6.89061 5.81542 6.69566 5.94676L4.80691 7.73609C6.23599 10.8907 9.03201 13.5396 12.3619 14.8935L14.2506 13.1041C14.1372 13.1321 14.3188 13.0138 14.2506 13.1041C14.1447 13.0567 14.3641 13.0762 14.2506 13.1041C15.6207 13.7207 17.4709 13.7958 18.9725 13.9988C18.7256 13.9752 19.1231 14.0193 18.9725 13.9988C19.106 14.0117 19.827 13.9044 19.9169 13.9988C20.0067 14.0932 19.917 14.7663 19.9169 14.8935Z" fill="#040404"/>
</svg>
