<svg width="71" height="70" viewBox="0 0 71 70" fill="none" xmlns="http://www.w3.org/2000/svg">
<g clip-path="url(#clip0_108_424)">
<path d="M9.18003 35.1681V70.0001H61.82V35.1681L66.3 39.6481L70.668 35.2801L61.82 26.4321V6.16006H51.18V15.7921L35.5 0.112061L0.332031 35.2801L4.70003 39.6481L9.18003 35.1681ZM59.58 33.0401V67.7601H11.42V33.0401H11.308L35.5 8.84806L59.692 33.0401H59.58ZM35.5 3.24806L53.42 21.1681V8.40006H59.58V27.3281L67.532 35.2801L66.3 36.5121L35.5 5.71206L4.70003 36.5121L3.46803 35.2801L35.5 3.24806Z" fill="#C8D814"/>
<path d="M31.468 30.24V33.208C30.908 33.376 30.348 33.656 29.788 33.936L27.66 31.808L21.948 37.52L24.076 39.648C23.796 40.208 23.572 40.768 23.348 41.328H20.38V49.392H23.348C23.516 49.952 23.796 50.512 24.076 51.072L21.948 53.2L27.66 58.912L29.788 56.784C30.348 57.064 30.908 57.288 31.468 57.512V60.48H39.532V57.512C40.092 57.344 40.652 57.064 41.212 56.784L43.34 58.912L49.052 53.2L46.924 51.072C47.204 50.512 47.428 49.952 47.652 49.392H50.62V41.328H47.652C47.484 40.768 47.204 40.208 46.924 39.648L49.052 37.52L43.34 31.808L41.212 33.936C40.652 33.656 40.092 33.432 39.532 33.208V30.24H31.468ZM40.876 36.288L41.604 36.736L43.34 35L45.86 37.52L44.124 39.256L44.572 39.984C45.076 40.824 45.468 41.776 45.692 42.728L45.916 43.568H48.38V47.152H45.916L45.692 47.992C45.468 48.944 45.076 49.84 44.572 50.736L44.124 51.464L45.86 53.2L43.34 55.72L41.604 53.984L40.876 54.432C40.036 54.936 39.084 55.328 38.132 55.552L37.292 55.776V58.24H33.708V55.776L32.868 55.552C31.916 55.328 31.02 54.936 30.124 54.432L29.396 53.984L27.66 55.72L25.14 53.2L26.876 51.464L26.428 50.736C25.924 49.896 25.532 48.944 25.308 47.992L25.084 47.152H22.62V43.568H25.084L25.308 42.728C25.532 41.776 25.924 40.88 26.428 39.984L26.876 39.256L25.14 37.52L27.66 35L29.396 36.736L30.124 36.288C30.964 35.784 31.916 35.392 32.868 35.168L33.708 34.944V32.48H37.292V34.944L38.132 35.168C39.084 35.392 39.98 35.784 40.876 36.288Z" fill="#C8D814"/>
<path d="M28.556 45.36C28.556 49.168 31.692 52.304 35.5 52.304C39.308 52.304 42.444 49.168 42.444 45.36C42.444 41.552 39.308 38.416 35.5 38.416C31.692 38.416 28.556 41.552 28.556 45.36ZM40.204 45.36C40.204 47.936 38.076 50.064 35.5 50.064C32.924 50.064 30.796 47.936 30.796 45.36C30.796 42.784 32.924 40.656 35.5 40.656C38.076 40.656 40.204 42.784 40.204 45.36Z" fill="#C8D814"/>
</g>
<defs>
<clipPath id="clip0_108_424">
<rect width="70.56" height="70" fill="white" transform="translate(0.219971)"/>
</clipPath>
</defs>
</svg>
