<svg width="85" height="70" viewBox="0 0 85 70" fill="none" xmlns="http://www.w3.org/2000/svg">
<g clip-path="url(#clip0_108_413)">
<path d="M23.3813 2.72261H3.09926V18.2899H23.3881L23.3813 2.72261ZM25.8447 0.0812988H81.8939C82.2155 0.0812988 82.5234 0.142884 82.804 0.266054C83.0914 0.389224 83.3582 0.567136 83.5772 0.786105L83.5909 0.799791C83.8098 1.01876 83.9878 1.28563 84.1041 1.57302C84.2204 1.85358 84.2888 2.1615 84.2888 2.48311V18.5431C84.2888 18.8647 84.2272 19.1727 84.1041 19.4601C83.9809 19.7543 83.803 20.0143 83.584 20.2401L83.5567 20.2607C83.3377 20.4728 83.0845 20.6439 82.804 20.7602C82.5234 20.8765 82.2155 20.9449 81.8939 20.9449H59.3401C59.2374 20.9449 59.1622 20.8628 59.1622 20.767V2.72261H47.7073V7.44413L56.124 17.0172C56.3635 17.2909 56.4729 17.633 56.4524 17.9752C56.4319 18.3105 56.2813 18.6389 56.0076 18.8853L55.9939 18.8921C55.8708 18.9947 55.7408 19.0769 55.5971 19.1248C55.4534 19.1795 55.296 19.2069 55.1454 19.2069H29.8614C29.4987 19.2069 29.1634 19.0563 28.9308 18.8168C28.6913 18.5773 28.5407 18.2489 28.5407 17.8862C28.5407 17.6946 28.5818 17.5167 28.657 17.3525C28.7323 17.1814 28.8418 17.0309 28.9787 16.9077L37.6416 7.43729V2.72261H26.0294V20.7465C26.0294 20.8491 25.9473 20.9244 25.8515 20.9244H2.85292C2.53131 20.9244 2.22338 20.8628 1.94283 20.7397C1.64859 20.6165 1.38856 20.4386 1.16275 20.2196C0.943784 20.0006 0.765872 19.7338 0.642702 19.4395C0.519532 19.1658 0.457947 18.8579 0.457947 18.5363V2.47627C0.457947 2.15466 0.519532 1.84674 0.642702 1.55934C0.759029 1.2651 0.936941 1.00507 1.16275 0.786105C1.1696 0.77242 1.17644 0.765577 1.18328 0.765577C1.40225 0.553451 1.65543 0.382381 1.93599 0.266054C2.22338 0.142884 2.53131 0.0812988 2.85292 0.0812988H25.8447ZM2.85292 35.8896H82.147C82.4687 35.8896 82.7766 35.958 83.0571 36.0743C83.3514 36.1975 83.6114 36.3754 83.8372 36.5944L83.8441 36.6012C84.063 36.8202 84.2341 37.0802 84.3573 37.3676C84.4736 37.6482 84.542 37.9561 84.542 38.2845V67.4758C84.542 67.7974 84.4736 68.1054 84.3573 68.3859C84.2409 68.6665 84.0699 68.9197 83.8646 69.1386C83.8577 69.1455 83.8509 69.1592 83.8441 69.166L83.8372 69.1729C83.6182 69.3918 83.3582 69.5697 83.064 69.6861C82.7834 69.8024 82.4755 69.8708 82.1539 69.8708H60.6676C60.6128 69.8845 60.5581 69.8982 60.4965 69.9119C60.4281 69.9256 60.3596 69.9256 60.2912 69.9256C60.2228 69.9256 60.1544 69.9187 60.0859 69.9119C60.0243 69.905 59.9696 69.8913 59.9149 69.8708H25.0851C25.0304 69.8845 24.9756 69.8982 24.914 69.9119C24.8456 69.9256 24.7772 69.9256 24.7088 69.9256C24.6403 69.9256 24.5719 69.9187 24.5035 69.9119C24.4419 69.905 24.3871 69.8913 24.3324 69.8708H2.85292C2.53131 69.8708 2.22338 69.8092 1.94283 69.6861C1.66228 69.5697 1.40225 69.3987 1.19012 69.1865C1.17644 69.1797 1.1696 69.1729 1.16275 69.1592C0.943784 68.9402 0.765872 68.6733 0.642702 68.3859C0.519532 68.1054 0.457947 67.7974 0.457947 67.4758V38.2845C0.457947 37.9629 0.519532 37.655 0.642702 37.3676C0.765872 37.0734 0.943784 36.8133 1.16275 36.5875C1.1696 36.5807 1.17644 36.5738 1.19012 36.567C1.40909 36.3549 1.66228 36.1838 1.94283 36.0675C2.22338 35.9512 2.53131 35.8896 2.85292 35.8896ZM81.9007 38.5309H61.6119V67.2295H81.9007V38.5309ZM58.9706 38.5309H26.0294V44.922H58.9706V38.5309ZM23.3881 38.5309H3.09926V67.2295H23.3881V38.5309ZM26.0294 67.2227H58.9706V47.5702H26.0294V67.2227ZM45.066 2.72261H40.2829V7.93681C40.2829 7.9505 40.2829 7.96418 40.2761 7.98471C40.2692 8.12841 40.2419 8.27895 40.1871 8.4158C40.1324 8.56635 40.0434 8.7032 39.9339 8.82637L32.8517 16.5656H52.2167L45.4219 8.84006C45.3124 8.72373 45.2166 8.58003 45.155 8.42949C45.0934 8.27895 45.0592 8.10788 45.0592 7.93681V2.72261H45.066ZM64.7664 40.0089C64.958 40.0089 65.1427 40.05 65.307 40.1184L65.3138 40.1252C65.4849 40.1937 65.6354 40.3032 65.7654 40.4263C65.8954 40.5563 65.9981 40.7137 66.0734 40.8848C66.1418 41.049 66.1828 41.2338 66.1828 41.4254C66.1828 41.617 66.1418 41.7949 66.0734 41.966C65.9981 42.137 65.8954 42.2944 65.7654 42.4244L65.7517 42.4313C65.6217 42.5544 65.4712 42.6571 65.3001 42.7255C65.1359 42.7939 64.9511 42.835 64.7595 42.835C64.5679 42.835 64.3832 42.7939 64.219 42.7255C64.0547 42.6571 63.9042 42.5544 63.7742 42.4313L63.7537 42.4176C63.6236 42.2876 63.521 42.1302 63.4526 41.9591L63.4457 41.9523C63.3773 41.788 63.3431 41.6101 63.3431 41.4185C63.3431 41.2269 63.3841 41.0422 63.4526 40.878C63.521 40.7069 63.6305 40.5495 63.7605 40.4195C63.8905 40.2895 64.0479 40.1868 64.219 40.1116L64.2258 40.1047C64.4037 40.0431 64.5816 40.0089 64.7664 40.0089ZM15.5736 4.05011C15.7652 4.05011 15.95 4.09117 16.1142 4.1596C16.2853 4.22802 16.4427 4.33751 16.5727 4.46752C16.7027 4.59753 16.8122 4.75492 16.8806 4.92599C16.949 5.09021 16.9901 5.27497 16.9901 5.46657C16.9901 5.65816 16.949 5.84292 16.8806 6.00715C16.8122 6.17822 16.7095 6.32876 16.5864 6.45193L16.5659 6.47246C16.4358 6.59563 16.2853 6.69827 16.1142 6.7667C15.95 6.83512 15.7652 6.87618 15.5736 6.87618C15.382 6.87618 15.2041 6.83512 15.0331 6.7667C14.862 6.69827 14.7046 6.58878 14.5746 6.45877L14.5609 6.44508C14.4377 6.31507 14.3351 6.16453 14.2667 6.0003C14.1982 5.83608 14.1572 5.65132 14.1572 5.45972C14.1572 5.26813 14.1982 5.08337 14.2667 4.91914L14.2735 4.9123C14.3419 4.74123 14.4514 4.59069 14.5746 4.46068C14.7046 4.33067 14.862 4.22802 15.0331 4.15275L15.0399 4.14591C15.211 4.09117 15.3889 4.05011 15.5736 4.05011ZM61.8924 2.72261H61.8035V18.2899H81.6544V2.72261H61.8924ZM68.1878 4.45384C68.3178 4.33067 68.4683 4.22802 68.6394 4.1596C68.8036 4.09117 68.9884 4.05011 69.18 4.05011C69.3716 4.05011 69.5563 4.09117 69.7206 4.1596L69.7274 4.16644C69.8985 4.23487 70.049 4.34435 70.179 4.46752C70.309 4.59753 70.4117 4.75492 70.4869 4.92599C70.5554 5.09021 70.5964 5.27497 70.5964 5.46657C70.5964 5.65816 70.5554 5.84292 70.4869 6.00715L70.4801 6.01399C70.4117 6.17822 70.309 6.32876 70.1859 6.45193L70.1653 6.47246C70.0353 6.59563 69.8848 6.69827 69.7206 6.7667C69.5563 6.83512 69.3716 6.87618 69.18 6.87618C68.9884 6.87618 68.8036 6.83512 68.6394 6.7667C68.4683 6.69827 68.311 6.58878 68.1809 6.45877C68.0509 6.32876 67.9483 6.17137 67.873 6.0003C67.8046 5.83608 67.7635 5.65132 67.7635 5.45972C67.7635 5.26813 67.8046 5.09021 67.873 4.91914C67.9483 4.74808 68.0509 4.59069 68.1809 4.46068L68.1878 4.45384ZM19.9257 40.0089C20.1173 40.0089 20.302 40.05 20.4662 40.1184L20.4731 40.1252C20.6441 40.2005 20.7947 40.3032 20.9247 40.4263L20.9315 40.44C21.0547 40.57 21.1574 40.7206 21.2258 40.8848L21.2326 40.8916C21.3011 41.0559 21.3353 41.2338 21.3353 41.4254C21.3353 41.617 21.2942 41.7949 21.2258 41.966C21.1505 42.137 21.0479 42.2944 20.9179 42.4244L20.9042 42.4313C20.7742 42.5544 20.6236 42.6571 20.4525 42.7255C20.2883 42.7939 20.1036 42.835 19.912 42.835C19.7204 42.835 19.5356 42.7939 19.3714 42.7255C19.2003 42.6571 19.0429 42.5476 18.9129 42.4176C18.7829 42.2876 18.6803 42.1302 18.605 41.9591L18.5982 41.9523C18.5297 41.788 18.4955 41.6101 18.4955 41.4185C18.4955 41.2269 18.5366 41.0422 18.605 40.878C18.6734 40.7069 18.7829 40.5495 18.9129 40.4195C19.0429 40.2895 19.2003 40.1868 19.3714 40.1116C19.5561 40.05 19.7341 40.0089 19.9257 40.0089Z" fill="#C8D814"/>
</g>
<defs>
<clipPath id="clip0_108_413">
<rect width="84.0841" height="70" fill="white" transform="translate(0.457947)"/>
</clipPath>
</defs>
</svg>
