<svg width="77" height="70" viewBox="0 0 77 70" fill="none" xmlns="http://www.w3.org/2000/svg">
<g clip-path="url(#clip0_108_473)">
<path d="M62.6495 65.6324V69.9187H60.0075V65.6324H59.5764C59.5456 65.6324 59.5086 65.6385 59.4717 65.6385H18.0311C17.9819 65.6447 17.9326 65.6447 17.8833 65.6447H17.8648H16.7748V69.9187H14.1328V65.6447H12.6116V65.6385C11.1213 65.6324 9.89574 65.3368 8.97196 64.5485C8.02356 63.7417 7.48777 62.5224 7.4385 60.7302C7.4385 60.7118 7.4385 60.6871 7.4385 60.6686L7.44466 41.4541C6.24991 41.1092 5.20296 40.6658 4.31614 40.1054C3.09675 39.3356 2.1853 38.3502 1.62487 37.1185C-0.265788 32.9677 0.688779 29.4758 2.92432 27.1233C3.94047 26.0517 5.2276 25.2326 6.63173 24.7092C8.02971 24.1857 9.5447 23.9578 11.0166 24.0748C12.1251 24.161 13.2152 24.432 14.219 24.9062V11.6162C14.219 6.14742 15.0381 3.29604 17.1443 1.70098C19.2012 0.142884 22.1696 0.0812988 26.6653 0.0812988H50.2031C55.093 0.0812988 58.0614 0.272213 60.0198 2.02123C61.9782 3.77024 62.5509 6.76943 62.5509 12.3182V25.4112C63.8935 24.7707 65.3715 24.4751 66.8434 24.4874C68.2783 24.4998 69.701 24.8015 70.9819 25.3496C72.2814 25.9101 73.4515 26.7291 74.3691 27.7699C76.3768 30.067 77.1035 33.3495 75.1574 37.1678C74.5662 38.3318 73.667 39.2986 72.4846 40.0685C71.5978 40.6412 70.557 41.1031 69.3622 41.4541V60.6871H69.3561V60.7179C69.3068 62.5162 68.771 63.7294 67.8226 64.5362C66.8988 65.3183 65.6733 65.6201 64.1829 65.6262V65.6324H62.6495ZM16.8548 26.8954C17.6678 27.8192 18.3267 28.9893 18.764 30.4119C18.9734 31.0894 19.1212 31.8284 19.1951 32.629C19.269 33.3988 19.269 34.224 19.1889 35.117V38.6458H57.5995V35.0616C57.5256 34.1932 57.501 33.3865 57.5564 32.6475C57.618 31.8037 57.7781 31.0216 58.0675 30.3134C58.5417 29.1433 59.1699 28.1641 59.9089 27.3635V12.3182C59.9089 7.5762 59.5394 5.11895 58.2646 3.97963C56.996 2.84647 54.4525 2.7233 50.2031 2.7233H26.6653C22.7116 2.7233 20.1127 2.76641 18.727 3.81335C17.3783 4.8295 16.8548 7.08352 16.8548 11.6223V26.8954ZM19.1889 41.2878V45.7281H57.5995V41.2878H19.1889ZM14.8164 28.6013C14.6624 28.5028 14.5269 28.3673 14.4284 28.2133C13.4061 27.2896 12.1313 26.8092 10.8195 26.7045C9.71714 26.6183 8.59014 26.7846 7.54935 27.1726C6.51472 27.5605 5.57247 28.1579 4.83345 28.94C3.29383 30.5659 2.6595 33.0293 4.02053 36.0285C4.35925 36.7675 4.93815 37.3772 5.73259 37.8822C6.6071 38.4365 7.72795 38.8552 9.05203 39.1508C9.63708 39.2802 10.0805 39.8098 10.0805 40.438L10.0743 60.6748C10.099 61.6417 10.3084 62.2329 10.6779 62.547C11.072 62.8857 11.7371 63.015 12.6178 63.015V63.0089H15.6847C15.734 63.0027 15.7833 63.0027 15.8325 63.0027H16.5531L16.5592 35.0924C16.5592 35.0431 16.5592 35 16.5654 34.9507C16.6331 34.1994 16.6331 33.5096 16.5716 32.8815C16.5161 32.2656 16.4053 31.7052 16.2452 31.1941C15.9188 30.1225 15.4261 29.2664 14.8164 28.6013ZM60.2415 39.5573C60.2846 39.6866 60.3092 39.8221 60.3092 39.9699C60.3092 40.1116 60.2846 40.2532 60.2415 40.3825V46.7566C60.2661 46.849 60.2723 46.9537 60.2723 47.0522C60.2723 47.1507 60.26 47.2554 60.2415 47.3478V62.9966H64.1768V63.0027C65.0513 63.0027 65.7164 62.8734 66.1167 62.5347C66.4801 62.2267 66.6894 61.6478 66.7202 60.6933H66.7141V40.4318C66.7141 39.7667 67.2068 39.2186 67.8411 39.1262C69.1282 38.8306 70.1998 38.4057 71.0435 37.8576C71.8256 37.3464 72.4169 36.7182 72.7987 35.973C74.172 33.2818 73.7225 31.0339 72.3799 29.5066C71.7394 28.7738 70.8895 28.1887 69.935 27.7761C68.9619 27.3573 67.8904 27.1294 66.8188 27.1171C64.2692 27.0986 61.7011 28.3427 60.5125 31.2864C60.3339 31.7298 60.2292 32.2472 60.1922 32.8261C60.143 33.4789 60.1676 34.1809 60.2353 34.9384C60.2415 34.9754 60.2415 35.0185 60.2415 35.0554H60.2477V39.5573H60.2415ZM19.1828 62.9966H57.5995V48.3701H19.1828V62.9966Z" fill="#C8D814"/>
</g>
<defs>
<clipPath id="clip0_108_473">
<rect width="75.7703" height="70" fill="white" transform="translate(0.614868)"/>
</clipPath>
</defs>
</svg>
