<svg width="73" height="70" viewBox="0 0 73 70" fill="none" xmlns="http://www.w3.org/2000/svg">
<g clip-path="url(#clip0_108_420)">
<path d="M10.0294 70H72.9706V8.82353H11.2059V0H10.0294C4.50001 0 0.0294189 4.47059 0.0294189 10V60C0.0294189 65.5294 4.50001 70 10.0294 70ZM2.38236 10C2.38236 6.17647 5.20589 3 8.85295 2.47059V26.1765C8.85295 36.4706 8.85295 46.7647 8.85295 50.0588C6.26471 50.3529 3.9706 51.6471 2.38236 53.5294V10ZM2.38236 60C2.38236 55.7647 5.79413 52.3529 10.0294 52.3529H11.2059V11.1765H70.6177V67.6471H10.0294C5.79413 67.6471 2.38236 64.2353 2.38236 60Z" fill="#C8D814"/>
<path d="M64.7353 28.8235H44.7353V27.6471H42.3824V31.1765H62.3824V59.4118H44.7353V38.2353H42.3824V59.4118H19.4412V31.1765H32.9706V27.0588H30.6177V28.8235H19.4412V19.4118H42.3824V20.5882H44.7353V17.0588H17.0883V61.7647H64.7353V28.8235Z" fill="#C8D814"/>
</g>
<defs>
<clipPath id="clip0_108_420">
<rect width="72.9412" height="70" fill="white" transform="translate(0.0294189)"/>
</clipPath>
</defs>
</svg>
