<svg width="199" height="199" viewBox="0 0 199 199" fill="none" xmlns="http://www.w3.org/2000/svg">
<g clip-path="url(#clip0_94_8)">
<path fill-rule="evenodd" clip-rule="evenodd" d="M16.0065 16.0065H39.8V39.8H16.0065V16.0065ZM0 143.193H55.8065V199H0V143.193ZM7.78696 151.413H47.587V191.213H7.78696V151.413ZM16.0065 159.2H39.8V182.993H16.0065V159.2ZM143.193 0H199V55.8065H143.193V0ZM151.413 7.78696H191.213V47.587H151.413V7.78696ZM159.2 16.0065H182.993V39.8H159.2V16.0065ZM79.6 103.393H87.387V95.6065H79.6V103.393ZM143.193 95.6065H151.413V87.387H143.193V95.6065ZM166.987 63.5935H175.207V71.813H166.987V63.5935ZM166.987 111.613V103.393H159.2V111.613H166.987ZM103.393 135.407H119.4V127.187V119.4H111.613H103.393H95.6065V127.187V135.407H103.393ZM79.6 127.187H87.387V135.407H79.6V127.187ZM63.5935 135.407H71.813V151.413H63.5935V135.407H47.587V127.187H55.8065V119.4H47.587V111.613H55.8065H63.5935H79.6V103.393H71.813V71.813H63.5935V95.6065H55.8065V87.387H47.587V79.6H55.8065V71.813H47.587V63.5935C60.9978 63.5935 74.4087 63.5935 87.387 63.5935V71.813H79.6V87.387H87.387V79.6H95.6065H111.613V87.387H95.6065V103.393H87.387V111.613V119.4H63.5935V127.187V135.407ZM71.813 191.213H79.6V182.993H71.813V191.213ZM151.413 127.187H135.407H127.187H119.4H103.393V119.4V111.613H95.6065V103.393H103.393V95.6065H111.613V111.613H127.187V103.393H119.4V95.6065H111.613V87.387H119.4V79.6H111.613V71.813H95.6065V47.587H103.393V39.8H95.6065V32.013H87.387V55.8065H79.6V32.013C74.4087 32.013 68.7848 32.013 63.5935 32.013V23.7935H71.813V16.0065H63.5935V7.78696H71.813V0H79.6V16.0065H87.387V7.78696H103.393V0H111.613V7.78696H127.187V0H135.407V16.0065H119.4V23.7935H127.187V32.013H135.407V55.8065H127.187V63.5935H119.4V79.6H127.187H135.407V95.6065H143.193V103.393H151.413V127.187ZM166.987 127.187H159.2V119.4H166.987V127.187ZM143.193 143.193H151.413V151.413H143.193V143.193ZM159.2 175.207V182.993H175.207V191.213H191.213V175.207H182.993V182.993H175.207V166.987H166.987V175.207H159.2ZM111.613 175.207H119.4V166.987H111.613V175.207ZM135.407 191.213H119.4V199H71.813H63.5935V191.213V159.2H71.813V175.207H87.387V182.993V191.213H111.613V182.993H103.393V175.207H95.6065V166.987H79.6V159.2H87.387V151.413H79.6V143.193H111.613V151.413H119.4V159.2H111.613V151.413H95.6065V159.2H127.187V143.193H119.4V135.407H127.187V127.187V119.4H143.193V111.613H135.407V95.6065H127.187V79.6V71.813H135.407V63.5935H143.193V79.6H151.413V63.5935H159.2V79.6H175.207V87.387H159.2V95.6065H166.987V103.393H175.207H182.993V119.4H191.213V127.187H199V111.613H191.213V103.393H199V79.6H191.213V63.5935H182.993V87.387H191.213V95.6065H175.207V103.393V127.187V135.407H166.987V127.187H175.207H182.993V143.193H191.213H199V151.413V159.2H191.213V151.413H175.207V159.2H182.993V166.987H191.213H199V175.207V191.213V199H191.213H159.2H151.413V191.213H143.193V199H135.407V191.213ZM135.407 159.2H160.065V135.407H135.407V159.2ZM127.187 182.993V175.207H119.4V182.993H127.187ZM143.193 175.207V182.993H135.407V191.213H143.193V182.993H151.413V175.207H143.193ZM63.5935 119.4V111.613V103.393H55.8065H39.8V119.4H16.0065V111.613H7.78696V135.407H0V103.393H16.0065V95.6065H7.78696V87.387H0V79.6H7.78696V71.813H0V63.5935H39.8V71.813H16.0065V79.6H23.7935V87.387H32.013V79.6H39.8V95.6065H32.013V103.393H39.8V95.6065H55.8065V103.393V111.613V119.4H63.5935ZM16.0065 127.187H23.7935V135.407H16.0065V127.187ZM63.5935 39.8H71.813V55.8065H63.5935V39.8ZM79.6 32.013H87.387V23.7935H79.6V32.013ZM95.6065 32.013H103.393V23.7935H111.613V16.0065H95.6065V32.013ZM119.4 63.5935V55.8065H111.613V47.587H103.393V63.5935H119.4ZM127.187 55.8065V47.587H119.4V55.8065H127.187ZM127.187 32.013H111.613V39.8H127.187V32.013ZM0 0H55.8065V55.8065H0V0ZM7.78696 7.78696H47.587V47.587H7.78696V7.78696Z" fill="white"/>
</g>
<defs>
<clipPath id="clip0_94_8">
<rect width="199" height="199" fill="white"/>
</clipPath>
</defs>
</svg>
