<svg xmlns="http://www.w3.org/2000/svg">

 <!-- whatsapp -->
	<symbol id="whatsapp" viewBox="0 0 23 24">
      <g>
         <path d="M11.546 0.500062C5.26698 0.500062 0.149495 5.61755 0.149495 11.8965C0.149495 13.909 0.678494 15.864 1.66749 17.589L0.0574951 23.5L6.09498 21.913C7.76248 22.8215 9.63697 23.3045 11.546 23.3045C17.8249 23.3045 22.9424 18.187 22.9424 11.908C22.9424 8.86054 21.7579 5.99705 19.6074 3.84655C18.553 2.78178 17.2971 1.93752 15.9131 1.36298C14.5291 0.788434 13.0445 0.495097 11.546 0.500062ZM11.5575 2.42056C14.0875 2.42056 16.4565 3.40955 18.2504 5.20355C19.1306 6.08389 19.8285 7.12923 20.3041 8.2797C20.7797 9.43016 21.0236 10.6631 21.0219 11.908C21.0219 17.129 16.767 21.3725 11.546 21.3725C9.84397 21.3725 8.17647 20.924 6.72748 20.05L6.38248 19.8545L2.79449 20.7975L3.74899 17.3015L3.51899 16.9335C2.56972 15.4252 2.06731 13.6787 2.06999 11.8965C2.08149 6.67555 6.32498 2.42056 11.5575 2.42056ZM7.50948 6.62955C7.32548 6.62955 7.01498 6.69854 6.75048 6.98604C6.49748 7.27354 5.74998 7.97504 5.74998 9.36654C5.74998 10.7695 6.77348 12.115 6.89998 12.3105C7.06098 12.506 8.92397 15.381 11.7875 16.6C12.466 16.9105 12.995 17.083 13.409 17.2095C14.0875 17.428 14.7085 17.3935 15.203 17.3245C15.755 17.244 16.882 16.6345 17.1234 15.9675C17.3649 15.3005 17.365 14.737 17.296 14.6105C17.2155 14.4955 17.0315 14.4265 16.7439 14.3C16.4565 14.139 15.0535 13.449 14.8005 13.357C14.536 13.265 14.375 13.219 14.1565 13.495C13.9725 13.7825 13.4205 14.4265 13.2595 14.6105C13.087 14.806 12.926 14.829 12.65 14.691C12.351 14.5415 11.431 14.2425 10.35 13.2765C9.49897 12.5175 8.93547 11.586 8.76297 11.2985C8.62497 11.0225 8.75147 10.85 8.88947 10.7235C9.01597 10.597 9.19997 10.39 9.31497 10.2175C9.46447 10.0565 9.51047 9.93004 9.60247 9.74604C9.69447 9.55054 9.64847 9.38954 9.57947 9.25154C9.51047 9.12504 8.93547 7.69904 8.69397 7.13554C8.46397 6.58355 8.23397 6.65255 8.04997 6.64105C7.88897 6.64105 7.70497 6.62955 7.50948 6.62955Z" />
      </g>
   </symbol>

   <!-- viber -->
	<symbol id="viber" viewBox="0 0 20 21">
      <g>
         <path fill-rule="evenodd" clip-rule="evenodd" d="M14.676 0.628045C11.5298 -0.0752338 8.26718 -0.0752338 5.12101 0.628045L4.78201 0.703045C3.89702 0.900907 3.08421 1.34023 2.43387 1.97221C1.78353 2.60419 1.32112 3.40409 1.09801 4.28305C0.300502 7.42557 0.300502 10.7175 1.09801 13.86C1.31078 14.6983 1.74141 15.4654 2.34624 16.0836C2.95107 16.7018 3.70859 17.149 4.54201 17.38L5.00701 20.156C5.02185 20.2442 5.06005 20.3268 5.11764 20.3951C5.17523 20.4635 5.25009 20.5152 5.33443 20.5448C5.41877 20.5744 5.50951 20.5809 5.5972 20.5635C5.68489 20.5461 5.76632 20.5056 5.83301 20.446L8.564 18.003C10.6141 18.1282 12.6716 17.9642 14.676 17.516L15.016 17.441C15.901 17.2432 16.7138 16.8039 17.3641 16.1719C18.0145 15.5399 18.4769 14.74 18.7 13.861C19.4974 10.7185 19.4974 7.42658 18.7 4.28405C18.4768 3.40496 18.0142 2.60498 17.3637 1.97298C16.7132 1.34099 15.9002 0.901742 15.015 0.704045L14.676 0.628045ZM5.96501 4.20205C5.77915 4.17499 5.58964 4.2124 5.42801 4.30805H5.41401C5.03901 4.52805 4.70101 4.80505 4.41301 5.13105C4.17301 5.40805 4.043 5.68805 4.00901 5.95805C3.98901 6.11805 4.00301 6.28005 4.05001 6.43304L4.06801 6.44305C4.33801 7.23604 4.69001 7.99904 5.12001 8.71704C5.67446 9.72553 6.35676 10.6582 7.15 11.492L7.17401 11.526L7.21201 11.554L7.235 11.581L7.263 11.605C8.09973 12.4007 9.03463 13.0862 10.045 13.645C11.2 14.274 11.901 14.571 12.322 14.695V14.701C12.445 14.739 12.557 14.756 12.67 14.756C13.0285 14.7295 13.3679 14.5838 13.634 14.342C13.959 14.054 14.234 13.715 14.448 13.338V13.331C14.649 12.951 14.581 12.593 14.291 12.35C13.7085 11.8411 13.0786 11.389 12.41 11C11.962 10.757 11.507 10.904 11.323 11.15L10.93 11.646C10.728 11.892 10.362 11.858 10.362 11.858L10.352 11.864C7.62101 11.167 6.89201 8.40205 6.89201 8.40205C6.89201 8.40205 6.85801 8.02604 7.11101 7.83404L7.603 7.43805C7.839 7.24605 8.00301 6.79205 7.75001 6.34405C7.36361 5.67481 6.91245 5.04512 6.40301 4.46405C6.29189 4.32729 6.13607 4.23415 5.96301 4.20105L5.96501 4.20205ZM10.579 3.00005C10.4464 3.00005 10.3192 3.05272 10.2255 3.14649C10.1317 3.24026 10.079 3.36744 10.079 3.50005C10.079 3.63265 10.1317 3.75983 10.2255 3.8536C10.3192 3.94737 10.4464 4.00005 10.579 4.00005C11.844 4.00005 12.894 4.41305 13.725 5.20505C14.152 5.63805 14.485 6.15105 14.703 6.71305C14.922 7.27605 15.022 7.87704 14.996 8.47904C14.9932 8.54471 15.0034 8.61027 15.026 8.67198C15.0486 8.7337 15.0831 8.79037 15.1276 8.83875C15.2174 8.93646 15.3424 8.99448 15.475 9.00004C15.6076 9.00561 15.737 8.95828 15.8347 8.86845C15.9324 8.77862 15.9904 8.65365 15.996 8.52104C16.027 7.78053 15.9041 7.04163 15.635 6.35105C15.3647 5.65718 14.955 5.02616 14.431 4.49705L14.421 4.48705C13.39 3.50205 12.085 3.00005 10.579 3.00005ZM10.545 4.64405C10.4124 4.64405 10.2852 4.69672 10.1915 4.79049C10.0977 4.88426 10.045 5.01144 10.045 5.14405C10.045 5.27665 10.0977 5.40383 10.1915 5.4976C10.2852 5.59137 10.4124 5.64405 10.545 5.64405H10.562C11.474 5.70905 12.138 6.01305 12.603 6.51205C13.08 7.02605 13.327 7.66504 13.308 8.45504C13.305 8.58765 13.3547 8.71604 13.4463 8.81197C13.5379 8.90789 13.6639 8.9635 13.7965 8.96655C13.9291 8.96959 14.0575 8.91984 14.1534 8.82823C14.2494 8.73662 14.305 8.61065 14.308 8.47804C14.332 7.44104 13.998 6.54605 13.336 5.83205V5.83005C12.659 5.10405 11.73 4.72005 10.612 4.64505L10.595 4.64305L10.545 4.64405ZM10.526 6.31905C10.4591 6.31314 10.3917 6.32078 10.3278 6.34151C10.2639 6.36223 10.2048 6.39562 10.1541 6.43968C10.1034 6.48374 10.0621 6.53757 10.0327 6.59794C10.0032 6.65832 9.98623 6.72401 9.98273 6.79109C9.97924 6.85818 9.9893 6.92528 10.0123 6.98839C10.0353 7.0515 10.0708 7.10932 10.1167 7.15841C10.1625 7.2075 10.2178 7.24685 10.2792 7.2741C10.3406 7.30136 10.4068 7.31596 10.474 7.31705C10.892 7.33905 11.159 7.46504 11.327 7.63405C11.496 7.80405 11.622 8.07704 11.645 8.50404C11.6463 8.57114 11.661 8.63731 11.6884 8.69859C11.7157 8.75987 11.7551 8.81501 11.8043 8.86074C11.8534 8.90646 11.9112 8.94183 11.9743 8.96473C12.0374 8.98763 12.1044 8.9976 12.1714 8.99404C12.2385 8.99048 12.3041 8.97347 12.3644 8.94402C12.4247 8.91456 12.4784 8.87327 12.5224 8.8226C12.5664 8.77193 12.5998 8.71292 12.6205 8.64908C12.6412 8.58525 12.6489 8.5179 12.643 8.45105C12.611 7.85105 12.423 7.32104 12.038 6.93105C11.651 6.54105 11.124 6.35105 10.526 6.31905Z" />
      </g>
   </symbol>

   <!-- facebook -->
	<symbol id="facebook" viewBox="0 0 23 23">
      <g>
         <path d="M22.6057 11.8794C22.6057 17.4129 18.5449 22.0093 13.2345 22.8125V15.0924H15.8228L16.3136 11.8794H13.2345V9.8267C13.2345 8.9342 13.6808 8.08633 15.0642 8.08633H16.4475V5.36422C16.4475 5.36422 15.198 5.1411 13.9485 5.1411C11.4496 5.1411 9.79844 6.70297 9.79844 9.4697V11.8794H6.98708V15.0924H9.79844V22.8125C4.48809 22.0093 0.471863 17.4129 0.471863 11.8794C0.471863 5.76585 5.42521 0.8125 11.5388 0.8125C17.6524 0.8125 22.6057 5.76585 22.6057 11.8794Z" />
      </g>
   </symbol>

   <!-- youtube -->
	<symbol id="youtube" viewBox="0 0 27 18">
      <g>
         <path d="M25.5422 2.85938C26.1047 4.82812 26.1047 9.04688 26.1047 9.04688C26.1047 9.04688 26.1047 13.2188 25.5422 15.2344C25.2609 16.3594 24.3703 17.2031 23.2922 17.4844C21.2766 18 13.3078 18 13.3078 18C13.3078 18 5.29218 18 3.27655 17.4844C2.19843 17.2031 1.3078 16.3594 1.02655 15.2344C0.46405 13.2188 0.46405 9.04688 0.46405 9.04688C0.46405 9.04688 0.46405 4.82812 1.02655 2.85938C1.3078 1.73438 2.19843 0.84375 3.27655 0.5625C5.29218 0 13.3078 0 13.3078 0C13.3078 0 21.2766 0 23.2922 0.5625C24.3703 0.84375 25.2609 1.73438 25.5422 2.85938ZM10.6828 12.8438L17.3391 9.04688L10.6828 5.25V12.8438Z" />
      </g>
   </symbol>

   <!-- instagram -->
	<symbol id="instagram" viewBox="0 0 21 22">
      <g>
         <path d="M10.6549 5.73438C13.5377 5.73438 15.9172 8.11384 15.9172 10.9967C15.9172 13.9252 13.5377 16.2589 10.6549 16.2589C7.72633 16.2589 5.39262 13.9252 5.39262 10.9967C5.39262 8.11384 7.72633 5.73438 10.6549 5.73438ZM10.6549 14.4286C12.531 14.4286 14.0411 12.9185 14.0411 10.9967C14.0411 9.12054 12.531 7.61049 10.6549 7.61049C8.73302 7.61049 7.22298 9.12054 7.22298 10.9967C7.22298 12.9185 8.77878 14.4286 10.6549 14.4286ZM17.3357 5.55134C17.3357 6.23772 16.7866 6.78683 16.1002 6.78683C15.4138 6.78683 14.8647 6.23772 14.8647 5.55134C14.8647 4.86496 15.4138 4.31585 16.1002 4.31585C16.7866 4.31585 17.3357 4.86496 17.3357 5.55134ZM20.8134 6.78683C20.9049 8.47991 20.9049 13.5592 20.8134 15.2522C20.7219 16.8996 20.3558 18.3181 19.1661 19.5536C17.9763 20.7433 16.512 21.1094 14.8647 21.2009C13.1716 21.2924 8.0924 21.2924 6.39932 21.2009C4.752 21.1094 3.33347 20.7433 2.09798 19.5536C0.908247 18.3181 0.542175 16.8996 0.450657 15.2522C0.35914 13.5592 0.35914 8.47991 0.450657 6.78683C0.542175 5.13951 0.908247 3.67522 2.09798 2.48549C3.33347 1.29576 4.752 0.929688 6.39932 0.83817C8.0924 0.746652 13.1716 0.746652 14.8647 0.83817C16.512 0.929688 17.9763 1.29576 19.1661 2.48549C20.3558 3.67522 20.7219 5.13951 20.8134 6.78683ZM18.617 17.0368C19.1661 15.7098 19.0288 12.5067 19.0288 10.9967C19.0288 9.53237 19.1661 6.32924 18.617 4.95647C18.2509 4.08705 17.5645 3.35491 16.6951 3.0346C15.3223 2.48549 12.1192 2.62277 10.6549 2.62277C9.14485 2.62277 5.94173 2.48549 4.61472 3.0346C3.69954 3.40067 3.01316 4.08705 2.64709 4.95647C2.09798 6.32924 2.23526 9.53237 2.23526 10.9967C2.23526 12.5067 2.09798 15.7098 2.64709 17.0368C3.01316 17.952 3.69954 18.6384 4.61472 19.0045C5.94173 19.5536 9.14485 19.4163 10.6549 19.4163C12.1192 19.4163 15.3223 19.5536 16.6951 19.0045C17.5645 18.6384 18.2966 17.952 18.617 17.0368Z" />
      </g>
   </symbol>

   <!-- phone -->
	<symbol id="phone" viewBox="0 0 14 14">
      <g>
         <path d="M13.9418 10.4438V12.9489C13.9419 13.1307 14.0727 13.4421 13.9418 13.5752C13.811 13.7082 13.4722 13.5624 13.2808 13.5752C12.9494 13.5967 12.8289 13.5752 12.6197 13.5752C5.91985 13.5752 0.0595319 8.02329 0.0595319 1.67606C0.0595319 1.47782 0.036029 1.36367 0.0595319 1.04979C0.0729683 0.868394 -0.0808961 0.547498 0.0595319 0.423525C0.19996 0.299553 0.528645 0.423443 0.720593 0.423525H3.36484C3.45888 0.423435 3.95613 0.363794 4.0259 0.423525C4.09567 0.483257 4.0165 0.961149 4.0259 1.04979C4.01074 0.949956 4.04334 1.21499 4.0259 1.04979C4.17657 2.04596 4.23055 3.27242 4.68696 4.18114C4.75899 4.32479 4.82343 4.0892 4.68696 4.18114L3.36484 5.43367C4.36519 7.64192 6.32241 9.49612 8.65333 10.4438L9.97545 9.19129C9.89606 9.21084 10.0232 9.12808 9.97545 9.19129C9.90127 9.15811 10.0548 9.17173 9.97545 9.19129C10.9345 9.6229 12.2296 9.67547 13.2808 9.81755C13.1079 9.80103 13.3861 9.83192 13.2808 9.81755C13.3742 9.82663 13.8789 9.75147 13.9418 9.81755C14.0047 9.88364 13.9419 10.3548 13.9418 10.4438Z" />
      </g>
   </symbol>

   <!--  -->
	<symbol id="" viewBox="">
      <g>
         
      </g>
   </symbol>

      <!--  -->
	<symbol id="" viewBox="">
      <g>
         
      </g>
   </symbol>

</svg>